TITLE ""
FILE "P1Q_j_1814-1827.mp3" MP3
  TRACK 01 AUDIO
    TITLE "P1Q_j_1814-1827_01"
    INDEX 01 00:00:00
  TRACK 02 AUDIO
    TITLE "P1Q_j_1814-1827_02"
    INDEX 01 00:01:39
  TRACK 03 AUDIO
    TITLE "P1Q_j_1814-1827_03"
    INDEX 01 00:01:59
  TRACK 04 AUDIO
    TITLE "P1Q_j_1814-1827_04"
    INDEX 01 00:05:51
  TRACK 05 AUDIO
    TITLE "P1Q_j_1814-1827_05"
    INDEX 01 00:05:68
  TRACK 06 AUDIO
    TITLE "P1Q_j_1814-1827_06"
    INDEX 01 00:10:67
  TRACK 07 AUDIO
    TITLE "P1Q_j_1814-1827_07"
    INDEX 01 00:11:39
  TRACK 08 AUDIO
    TITLE "P1Q_j_1814-1827_08"
    INDEX 01 00:13:01
  TRACK 09 AUDIO
    TITLE "P1Q_j_1814-1827_09"
    INDEX 01 00:13:21
  TRACK 10 AUDIO
    TITLE "P1Q_j_1814-1827_10"
    INDEX 01 00:15:18
  TRACK 11 AUDIO
    TITLE "P1Q_j_1814-1827_11"
    INDEX 01 00:15:37
  TRACK 12 AUDIO
    TITLE "P1Q_j_1814-1827_12"
    INDEX 01 00:19:72
  TRACK 13 AUDIO
    TITLE "P1Q_j_1814-1827_13"
    INDEX 01 00:20:42
  TRACK 14 AUDIO
    TITLE "P1Q_j_1814-1827_14"
    INDEX 01 00:22:02
  TRACK 15 AUDIO
    TITLE "P1Q_j_1814-1827_15"
    INDEX 01 00:22:22
  TRACK 16 AUDIO
    TITLE "P1Q_j_1814-1827_16"
    INDEX 01 00:29:55
  TRACK 17 AUDIO
    TITLE "P1Q_j_1814-1827_17"
    INDEX 01 00:30:04
  TRACK 18 AUDIO
    TITLE "P1Q_j_1814-1827_18"
    INDEX 01 00:34:13
  TRACK 19 AUDIO
    TITLE "P1Q_j_1814-1827_19"
    INDEX 01 00:34:58
  TRACK 20 AUDIO
    TITLE "P1Q_j_1814-1827_20"
    INDEX 01 00:36:16
  TRACK 21 AUDIO
    TITLE "P1Q_j_1814-1827_21"
    INDEX 01 00:36:37
  TRACK 22 AUDIO
    TITLE "P1Q_j_1814-1827_22"
    INDEX 01 00:38:64
  TRACK 23 AUDIO
    TITLE "P1Q_j_1814-1827_23"
    INDEX 01 00:39:06
  TRACK 24 AUDIO
    TITLE "P1Q_j_1814-1827_24"
    INDEX 01 00:43:51
  TRACK 25 AUDIO
    TITLE "P1Q_j_1814-1827_25"
    INDEX 01 00:44:21
  TRACK 26 AUDIO
    TITLE "P1Q_j_1814-1827_26"
    INDEX 01 00:45:44
  TRACK 27 AUDIO
    TITLE "P1Q_j_1814-1827_27"
    INDEX 01 00:45:66
  TRACK 28 AUDIO
    TITLE "P1Q_j_1814-1827_28"
    INDEX 01 00:49:70
  TRACK 29 AUDIO
    TITLE "P1Q_j_1814-1827_29"
    INDEX 01 00:50:14
  TRACK 30 AUDIO
    TITLE "P1Q_j_1814-1827_30"
    INDEX 01 00:54:37
  TRACK 31 AUDIO
    TITLE "P1Q_j_1814-1827_31"
    INDEX 01 00:55:09
  TRACK 32 AUDIO
    TITLE "P1Q_j_1814-1827_32"
    INDEX 01 00:56:50
  TRACK 33 AUDIO
    TITLE "P1Q_j_1814-1827_33"
    INDEX 01 00:56:72
  TRACK 34 AUDIO
    TITLE "P1Q_j_1814-1827_34"
    INDEX 01 01:00:73
  TRACK 35 AUDIO
    TITLE "P1Q_j_1814-1827_35"
    INDEX 01 01:01:18
  TRACK 36 AUDIO
    TITLE "P1Q_j_1814-1827_36"
    INDEX 01 01:06:05
  TRACK 37 AUDIO
    TITLE "P1Q_j_1814-1827_37"
    INDEX 01 01:06:56
  TRACK 38 AUDIO
    TITLE "P1Q_j_1814-1827_38"
    INDEX 01 01:08:18
  TRACK 39 AUDIO
    TITLE "P1Q_j_1814-1827_39"
    INDEX 01 01:08:37
  TRACK 40 AUDIO
    TITLE "P1Q_j_1814-1827_40"
    INDEX 01 01:14:24
  TRACK 41 AUDIO
    TITLE "P1Q_j_1814-1827_41"
    INDEX 01 01:14:46
  TRACK 42 AUDIO
    TITLE "P1Q_j_1814-1827_42"
    INDEX 01 01:18:67
  TRACK 43 AUDIO
    TITLE "P1Q_j_1814-1827_43"
    INDEX 01 01:19:37
  TRACK 44 AUDIO
    TITLE "P1Q_j_1814-1827_44"
    INDEX 01 01:21:32
  TRACK 45 AUDIO
    TITLE "P1Q_j_1814-1827_45"
    INDEX 01 01:21:54
  TRACK 46 AUDIO
    TITLE "P1Q_j_1814-1827_46"
    INDEX 01 01:24:68
  TRACK 47 AUDIO
    TITLE "P1Q_j_1814-1827_47"
    INDEX 01 01:25:12
  TRACK 48 AUDIO
    TITLE "P1Q_j_1814-1827_48"
    INDEX 01 01:28:40
  TRACK 49 AUDIO
    TITLE "P1Q_j_1814-1827_49"
    INDEX 01 01:29:10
  TRACK 50 AUDIO
    TITLE "P1Q_j_1814-1827_50"
    INDEX 01 01:30:53
  TRACK 51 AUDIO
    TITLE "P1Q_j_1814-1827_51"
    INDEX 01 01:30:72
  TRACK 52 AUDIO
    TITLE "P1Q_j_1814-1827_52"
    INDEX 01 01:36:32
  TRACK 53 AUDIO
    TITLE "P1Q_j_1814-1827_53"
    INDEX 01 01:36:51
  TRACK 54 AUDIO
    TITLE "P1Q_j_1814-1827_54"
    INDEX 01 01:40:14
  TRACK 55 AUDIO
    TITLE "P1Q_j_1814-1827_55"
    INDEX 01 01:40:57
  TRACK 56 AUDIO
    TITLE "P1Q_j_1814-1827_56"
    INDEX 01 01:42:11
  TRACK 57 AUDIO
    TITLE "P1Q_j_1814-1827_57"
    INDEX 01 01:42:31
  TRACK 58 AUDIO
    TITLE "P1Q_j_1814-1827_58"
    INDEX 01 01:45:60
  TRACK 59 AUDIO
    TITLE "P1Q_j_1814-1827_59"
    INDEX 01 01:46:05
  TRACK 60 AUDIO
    TITLE "P1Q_j_1814-1827_60"
    INDEX 01 01:52:27
  TRACK 61 AUDIO
    TITLE "P1Q_j_1814-1827_61"
    INDEX 01 01:52:74
  TRACK 62 AUDIO
    TITLE "P1Q_j_1814-1827_62"
    INDEX 01 01:54:34
  TRACK 63 AUDIO
    TITLE "P1Q_j_1814-1827_63"
    INDEX 01 01:54:53
  TRACK 64 AUDIO
    TITLE "P1Q_j_1814-1827_64"
    INDEX 01 01:58:69
  TRACK 65 AUDIO
    TITLE "P1Q_j_1814-1827_65"
    INDEX 01 01:59:13
  TRACK 66 AUDIO
    TITLE "P1Q_j_1814-1827_66"
    INDEX 01 02:02:29
  TRACK 67 AUDIO
    TITLE "P1Q_j_1814-1827_67"
    INDEX 01 02:02:74
  TRACK 68 AUDIO
    TITLE "P1Q_j_1814-1827_68"
    INDEX 01 02:04:56
  TRACK 69 AUDIO
    TITLE "P1Q_j_1814-1827_69"
    INDEX 01 02:05:00
  TRACK 70 AUDIO
    TITLE "P1Q_j_1814-1827_70"
    INDEX 01 02:07:17
  TRACK 71 AUDIO
    TITLE "P1Q_j_1814-1827_71"
    INDEX 01 02:07:36
  TRACK 72 AUDIO
    TITLE "P1Q_j_1814-1827_72"
    INDEX 01 02:12:00
  TRACK 73 AUDIO
    TITLE "P1Q_j_1814-1827_73"
    INDEX 01 02:12:45
  TRACK 74 AUDIO
    TITLE "P1Q_j_1814-1827_74"
    INDEX 01 02:14:13
  TRACK 75 AUDIO
    TITLE "P1Q_j_1814-1827_75"
    INDEX 01 02:14:32
  TRACK 76 AUDIO
    TITLE "P1Q_j_1814-1827_76"
    INDEX 01 02:19:26
  TRACK 77 AUDIO
    TITLE "P1Q_j_1814-1827_77"
    INDEX 01 02:19:45
  TRACK 78 AUDIO
    TITLE "P1Q_j_1814-1827_78"
    INDEX 01 02:23:61
  TRACK 79 AUDIO
    TITLE "P1Q_j_1814-1827_79"
    INDEX 01 02:24:31
  TRACK 80 AUDIO
    TITLE "P1Q_j_1814-1827_80"
    INDEX 01 02:25:66
  TRACK 81 AUDIO
    TITLE "P1Q_j_1814-1827_81"
    INDEX 01 02:26:10
  TRACK 82 AUDIO
    TITLE "P1Q_j_1814-1827_82"
    INDEX 01 02:28:07
  TRACK 83 AUDIO
    TITLE "P1Q_j_1814-1827_83"
    INDEX 01 02:28:27
  TRACK 84 AUDIO
    TITLE "P1Q_j_1814-1827_84"
    INDEX 01 02:32:54
